<svg id="Layer_1" data-name="Layer 1" xmlns="http://www.w3.org/2000/svg" viewBox="0 0 50 50"><path d="M19,25.08,22.39,20h0L25,16.11h0L26.49,14a1.11,1.11,0,0,0-.3-1.54,1.1,1.1,0,0,0-1.53.3l-1.14,1.68H7.86a1.11,1.11,0,0,0,0,2.21H22l-1.15,1.7H14.49a1.11,1.11,0,1,0,0,2.21h4.9L18.24,22.2H4.37a1.11,1.11,0,0,0,0,2.21H16.75l0,.05a1.12,1.12,0,0,0,0,1.24l.28.41H7.86a1.11,1.11,0,0,0,0,2.21H18.49L19.64,30H14a1.11,1.11,0,0,0,0,2.21h7.14l1.05,1.55H9.36a1.11,1.11,0,0,0,0,2.21H23.67l.88,1.3a1.11,1.11,0,0,0,1.54.3,1.11,1.11,0,0,0,.29-1.54l-1.2-1.78h0Z" fill="#fff"/><path d="M37.23,12.27a1.09,1.09,0,0,0-1.37.74L28.79,36.35a1.1,1.1,0,0,0,.74,1.38,1.19,1.19,0,0,0,.32.05A1.11,1.11,0,0,0,30.91,37L38,13.65A1.1,1.1,0,0,0,37.23,12.27Z" fill="#fff"/><path d="M49.58,24.3,41.75,12.71A1.11,1.11,0,1,0,39.92,14l7.41,11L39.82,36.05a1.1,1.1,0,0,0,.91,1.73,1.09,1.09,0,0,0,.92-.49l7.93-11.75A1.08,1.08,0,0,0,49.58,24.3Z" fill="#fff"/><path d="M10.91,31.12A1.1,1.1,0,0,0,9.81,30H1.33a1.11,1.11,0,0,0,0,2.21H9.81A1.11,1.11,0,0,0,10.91,31.12Z" fill="#fff"/><path d="M2,20.51h8.25a1.11,1.11,0,1,0,0-2.21H2a1.11,1.11,0,1,0,0,2.21Z" fill="#fff"/></svg>