<svg id="Layer_1" data-name="Layer 1" xmlns="http://www.w3.org/2000/svg" viewBox="0 0 50 50"><path d="M7.44,18.67V9.41a.08.08,0,0,1,.08-.08h2.76a1.31,1.31,0,1,0,0-2.61H7.52A2.69,2.69,0,0,0,4.83,9.41v9.26a.67.67,0,0,1-.18.44L2.8,21a1.3,1.3,0,0,0,0,1.84l1.85,1.85a.63.63,0,0,1,.18.44v9.25A2.68,2.68,0,0,0,7.52,37h2.76a1.31,1.31,0,1,0,0-2.61H7.52a.07.07,0,0,1-.08-.08V25.08a3.27,3.27,0,0,0-1-2.29l-.92-.92L6.49,21A3.25,3.25,0,0,0,7.44,18.67Z" fill="#fff"/><path d="M47.2,21l-1.85-1.84a.67.67,0,0,1-.18-.44V9.41a2.69,2.69,0,0,0-2.69-2.69H39.71a1.31,1.31,0,0,0,0,2.61h2.77a.08.08,0,0,1,.08.08v9.26A3.25,3.25,0,0,0,43.51,21l.92.92-.92.92a3.27,3.27,0,0,0-.95,2.29v9.25a.07.07,0,0,1-.08.08H39.71a1.31,1.31,0,0,0,0,2.61h2.77a2.68,2.68,0,0,0,2.69-2.69V25.08a.6.6,0,0,1,.19-.44l1.84-1.85A1.3,1.3,0,0,0,47.2,21Z" fill="#fff"/><path d="M35.06,40.67H31.52V37h3.29a1.31,1.31,0,1,0,0-2.61H15.19a1.31,1.31,0,1,0,0,2.61h3.29v3.65H14.94a1.31,1.31,0,0,0,0,2.61H35.06a1.31,1.31,0,0,0,0-2.61Zm-14,0V37h7.82v3.65Z" fill="#fff"/><path d="M15.19,9.33H34.81a1.31,1.31,0,1,0,0-2.61H15.19a1.31,1.31,0,1,0,0,2.61Z" fill="#fff"/><path d="M35.06,14,21.18,27.89a1.32,1.32,0,0,0,0,1.84,1.29,1.29,0,0,0,1.85,0L36.91,15.86A1.31,1.31,0,1,0,35.06,14Z" fill="#fff"/><path d="M14.94,29.73,28.81,15.86A1.3,1.3,0,1,0,27,14L13.09,27.89a1.3,1.3,0,1,0,1.85,1.84Z" fill="#fff"/></svg>