<svg id="Layer_1" data-name="Layer 1" xmlns="http://www.w3.org/2000/svg" viewBox="0 0 50 50"><path d="M17.13,44.17a5.07,5.07,0,0,1-5.06-5.06V28.89L8.85,25.66a.92.92,0,0,1,0-1.32l3.22-3.23V10.89a5.07,5.07,0,0,1,5.06-5.06.94.94,0,0,1,0,1.88A3.18,3.18,0,0,0,14,10.89V21.5a1,1,0,0,1-.28.67L10.84,25l2.83,2.83a1,1,0,0,1,.28.67V39.11a3.18,3.18,0,0,0,3.18,3.18.94.94,0,0,1,0,1.88Z" fill="#fff"/><path d="M32.87,44.17a.94.94,0,0,1,0-1.88,3.18,3.18,0,0,0,3.18-3.18V28.5a1,1,0,0,1,.28-.67L39.16,25l-2.83-2.83a1,1,0,0,1-.28-.67V10.89a3.18,3.18,0,0,0-3.18-3.18.94.94,0,1,1,0-1.88,5.07,5.07,0,0,1,5.06,5.06V21.11l3.22,3.23a.92.92,0,0,1,0,1.32l-3.22,3.23V39.11A5.07,5.07,0,0,1,32.87,44.17Z" fill="#fff"/><path d="M26.83,39.61A1.83,1.83,0,1,1,25,37.78,1.83,1.83,0,0,1,26.83,39.61Z" fill="#fff"/><path d="M33,10H17a1.15,1.15,0,0,0-1.15,1.15V33.43A1.16,1.16,0,0,0,17,34.59H33a1.16,1.16,0,0,0,1.15-1.16V11.17A1.15,1.15,0,0,0,33,10Zm0,2.29-14.72,21a.75.75,0,0,1-1.05.18.74.74,0,0,1-.18-1l14.72-21a.75.75,0,0,1,1.05-.18A.74.74,0,0,1,33,12.31Z" fill="#fff"/></svg>